<?xml version="1.0" standalone="no"?>
<!DOCTYPE svg PUBLIC "-//W3C//DTD SVG 20010904//EN"
 "http://www.w3.org/TR/2001/REC-SVG-20010904/DTD/svg10.dtd">
<svg version="1.0" xmlns="http://www.w3.org/2000/svg"
 width="161.000000pt" height="161.000000pt" viewBox="0 0 161.000000 161.000000"
 preserveAspectRatio="xMidYMid meet">
<metadata>
Created by potrace 1.14, written by Peter Selinger 2001-2017
</metadata>
<g transform="translate(0.000000,161.000000) scale(0.100000,-0.100000)"
fill="#000000" stroke="none">
<path d="M920 1303 c-82 -17 -240 -124 -240 -162 0 -7 -7 -14 -15 -17 -8 -4
-13 -10 -10 -14 11 -18 -14 -18 -61 -1 -79 29 -162 12 -216 -44 -57 -58 -62
-69 -63 -150 0 -38 -2 -41 -45 -57 -97 -38 -175 -147 -187 -263 -5 -43 -3 -55
8 -55 11 0 11 -2 -1 -10 -10 -6 -11 -10 -3 -10 7 0 12 -3 11 -7 -3 -16 15 -63
24 -63 5 0 7 -4 4 -8 -10 -16 79 -98 133 -122 l54 -25 541 0 c590 1 572 -1
644 60 41 35 89 104 98 141 11 48 12 168 1 182 -5 7 -7 15 -4 18 8 8 -40 91
-75 130 -16 17 -51 42 -79 55 -46 22 -57 38 -49 74 6 32 -46 161 -81 198 -10
12 -19 23 -19 27 0 14 -103 83 -151 101 -51 20 -172 32 -219 22z m13 -392 c66
-26 123 -99 132 -169 2 -15 4 -29 5 -32 2 -5 2 -10 -6 -42 -2 -10 -6 -28 -9
-40 -13 -62 -114 -136 -192 -143 -67 -5 -193 55 -193 93 0 6 -4 12 -8 12 -14
0 -37 81 -34 120 2 28 7 62 11 78 1 1 1 4 1 7 -1 3 5 12 12 19 7 8 20 23 28
35 18 26 69 60 108 70 36 10 110 6 145 -8z"/>
<path d="M778 801 c-2 -17 0 -37 4 -45 5 -9 5 -16 0 -16 -9 0 -7 -94 3 -110 3
-5 1 -10 -4 -10 -13 0 -14 -10 -2 -29 7 -11 26 -2 93 44 45 32 84 59 86 61 7
5 -23 44 -34 44 -6 0 -19 9 -29 20 -10 11 -24 20 -32 20 -7 0 -13 5 -13 10 0
6 -5 10 -11 10 -6 0 -17 7 -25 15 -22 22 -31 19 -36 -14z"/>
</g>
</svg>
